/* XPM */
static char *_578415742126[] = {
/* columns rows colors chars-per-pixel */
"32 32 114 2 ",
"   c #285E6B",
".  c #295F6B",
"X  c #2A5F6C",
"o  c #2B5F6C",
"O  c #29616F",
"+  c #31626E",
"@  c #33626F",
"#  c #33636F",
"$  c #2A6373",
"%  c #2E6B7D",
"&  c #2E6B7E",
"*  c #356470",
"=  c #376571",
"-  c #3B6976",
";  c #336D7F",
":  c #3F6D7B",
">  c #426B76",
",  c #466D78",
"<  c #4A6F7A",
"1  c #2F6D81",
"2  c #306F83",
"3  c #317085",
"4  c #327388",
"5  c #327389",
"6  c #33748A",
"7  c #34748A",
"8  c #36748A",
"9  c #33758C",
"0  c #34768E",
"q  c #34768F",
"w  c #34778F",
"e  c #3A7489",
"r  c #38768B",
"t  c #347891",
"y  c #357A94",
"u  c #367A96",
"i  c #367B97",
"p  c #377C98",
"a  c #377C99",
"s  c #397D99",
"d  c #397F9D",
"f  c #4A7888",
"g  c #39809E",
"h  c #3A82A1",
"j  c #3A82A2",
"k  c #3A83A3",
"l  c #3B83A3",
"z  c #3C83A3",
"x  c #3C83A6",
"c  c #3B84A6",
"v  c #3C84A7",
"b  c #3D86AA",
"n  c #3D86AB",
"m  c #3D86AC",
"M  c #3E87AC",
"N  c #3F87AC",
"B  c #4089B2",
"V  c #408AB3",
"C  c #428CB8",
"Z  c #428CB9",
"A  c #448FC0",
"S  c #4490C0",
"D  c #4590C0",
"F  c #4791C0",
"G  c #4792C0",
"H  c #4591C2",
"J  c #4691C3",
"K  c #4792C3",
"L  c #4692C5",
"P  c #4793C6",
"I  c #4793C7",
"U  c #4893C6",
"Y  c #4894C7",
"T  c #4994C7",
"R  c #4B95C7",
"E  c #4C96C7",
"W  c #4894C8",
"Q  c #4A96CA",
"!  c #4C95C8",
"~  c #4D96C9",
"^  c #4C97CC",
"/  c #4E98CE",
"(  c #4E99CE",
")  c #529ACD",
"_  c #519CD1",
"`  c #549ED4",
"'  c #549FD4",
"]  c #559FD5",
"[  c #56A0D5",
"{  c #57A2D8",
"}  c #58A2D8",
"|  c #58A2D9",
" . c #58A3D9",
".. c #59A3D9",
"X. c #5AA4DB",
"o. c #5DA7DE",
"O. c #5EA8DF",
"+. c #69A7D7",
"@. c #63AADF",
"#. c #5FA9E1",
"$. c #61ABE2",
"%. c #62ACE4",
"&. c #63ADE5",
"*. c #64ADE5",
"=. c #65AEE5",
"-. c #66AEE5",
";. c #6CAFE3",
":. c #68AFE6",
">. c #6AB0E6",
",. c #6CB1E6",
"<. c #6DB1E6",
"1. c #72B3E6",
"2. c #72B3E7",
"3. c None",
/* pixels */
"3.3.3.3.3.3.+.! I I I I Z c j j j j j w 5 5 5 5 8 f 3.3.3.3.3.3.",
"3.3.3.3.>.=.' I I I I I J j j j j j j w 5 5 5 5 4 & O * 3.3.3.3.",
"3.3.,.=.&.&.' I I I I I Z l j j j l j w 5 5 5 5 4 &       = 3.3.",
"3.1.&.&.&.&.' I I I I I J l j j j l g w 5 5 5 5 4 &       . < 3.",
"3.=.&.&.&.&.' I I I I I Z j j j j j j 0 4 4 5 5 4 &         # 3.",
"1.&.&.&.&.&.' I I I I I J j j j j j j t 4 4 5 5 4 &         . , ",
"$.o.O.O.O.O.' ( ( ( ( ( W N n n n b b y w 0 w 0 w 3 $ $ $ $ $ : ",
"! T W W W W | &.%.%.%.%.O.T I I Y Y J b j j j j j y 4 4 4 3 5 8 ",
"W W U I I I { &.&.&.&.&.O.I I I I I I n j j j j j s 5 5 5 5 5 5 ",
"T U I I I I  .&.&.&.&.&.O.I I I I I I n j j j j j a 5 5 5 5 5 5 ",
"W I I I Y I X.&.&.&.&.&.o.I I I I I I n j j j j j p 5 5 5 5 5 5 ",
"T I I I Y W [ &.&.&.&.&.#.I I I I I I N j j j j j a 5 5 5 5 5 5 ",
"U U I I I I X.=.&.&.%.%.O.Y W W Y Y Y n c j z c j a 0 4 4 4 8 4 ",
"N n n n n n Z ( ( ( ( ( _ O.o.#.O.O.O.T J Z J Z A B d d g d g g ",
"z j j j j j C I I I I I ( &.&.&.&.&.%.( I I I I I Z j j j j j j ",
"z j j j j j C I I I I I ^ &.&.&.&.&.%.( I I I I I Z j j j j j j ",
"z j j j j j C I I I I I ( &.&.&.&.&.%.( I I I I I Z j j j j j j ",
"z j j j j j C I I I I I ^ &.&.&.&.&.%.( I I I I I C j j j j j j ",
"z j k j j j C I I I U I ( =.=.&.&.%.%.( I I I I I C j l j l j j ",
"s a y a a a N Z C C C C J | } } X.X.| [ ` ` ` ` ` T B V B V V B ",
"8 4 0 5 5 5 a j j j j j n I I I I I Y O.&.&.&.&.&.{ I I Y I I I ",
"4 4 5 5 5 5 y z j j j j n I I I I I Y O.&.&.&.&.&.{ I I Y Y I I ",
"5 5 5 5 5 5 a j j j j j n I I I I I T O.&.&.&.&.&.{ I I I I I I ",
"8 5 5 5 5 5 a j j j j j n I I I I I Y O.&.&.&.&.&.| I I I I I I ",
"5 5 5 5 5 5 a j j j j j n I I I I I W #.=.%.*.%.&.| I I I I I I ",
"e 3 3 3 3 3 y g g d g g k J A I J J J | #.#.#.#.#.{ ^ ^ ^ ^ ^ ) ",
"- $ O   O O 1 0 4 0 0 5 t k n k k k v I Q Q W ^ Q ' %.%.$.$.$.;.",
"3.  .       % 5 5 5 5 5 w j j j k k k A I I I I I ' &.&.&.&.&.3.",
"3.@         % 5 5 5 5 5 w j j j j j k A I I I I W ' &.&.&.&.=.3.",
"3.3.  .     % 5 5 5 5 5 w j j j j j k A I I I I I ' &.&.&.=.3.3.",
"3.3.3.# . . % 5 5 5 5 5 w j j j j j k J I I I W I ' =.=.=.3.3.3.",
"3.3.3.3.> @ 2 5 5 5 5 5 w j j j j k c Z I I I W W ' :.,.3.3.3.3."
};
