/* XPM */
static char *_578415747639[] = {
/* columns rows colors chars-per-pixel */
"64 64 121 2 ",
"   c #285E6B",
".  c #295F6D",
"X  c #2A5F6C",
"o  c #2B5F6C",
"O  c #2E616D",
"+  c #32636F",
"@  c #2B6473",
"#  c #2D6879",
"$  c #2D687A",
"%  c #346470",
"&  c #396672",
"*  c #3F6974",
"=  c #3E6975",
"-  c #416B76",
";  c #436C77",
":  c #43717F",
">  c #4C717B",
",  c #4F727C",
"<  c #4E737D",
"1  c #51747E",
"2  c #52747E",
"3  c #317186",
"4  c #327389",
"5  c #337389",
"6  c #32748A",
"7  c #36758B",
"8  c #33758D",
"9  c #34768E",
"0  c #38768C",
"q  c #3C798E",
"w  c #347790",
"e  c #357993",
"r  c #367A95",
"t  c #367B96",
"y  c #387D9A",
"u  c #387D9C",
"i  c #387E9C",
"p  c #457A8D",
"a  c #4F7A89",
"s  c #537780",
"d  c #547781",
"f  c #567780",
"g  c #5A7B84",
"h  c #487D91",
"j  c #617F87",
"k  c #39809F",
"l  c #3D809D",
"z  c #3A82A2",
"x  c #3A83A3",
"c  c #3C84A7",
"v  c #3E87AC",
"b  c #3E87AD",
"n  c #3F89B1",
"m  c #3F89B2",
"M  c #64828A",
"N  c #4085A4",
"B  c #418BB5",
"V  c #418BB7",
"C  c #448EBA",
"Z  c #438EBC",
"A  c #448EBD",
"S  c #6990A0",
"D  c #4591C3",
"F  c #4691C3",
"G  c #4692C4",
"H  c #4793C7",
"J  c #4A93C4",
"K  c #4A94C4",
"L  c #4A95C5",
"P  c #4894C8",
"I  c #4B96CB",
"U  c #4B97CB",
"Y  c #4C95C8",
"T  c #4F9ACF",
"R  c #5197C9",
"E  c #5298C9",
"W  c #599CCB",
"Q  c #509AD0",
"!  c #519CD1",
"~  c #529DD3",
"^  c #56A0D6",
"/  c #56A1D7",
"(  c #57A1D8",
")  c #58A2D9",
"_  c #59A3D9",
"`  c #5AA4DA",
"'  c #5AA5DB",
"]  c #5BA5DC",
"[  c #5CA6DD",
"{  c #5DA7DE",
"}  c #64A1CF",
"|  c #65ABDF",
" . c #6BABDC",
".. c #73A6D0",
"X. c #60AAE1",
"o. c #60AAE2",
"O. c #62ACE4",
"+. c #63ADE5",
"@. c #64ADE5",
"#. c #65AEE5",
"$. c #67AEE5",
"%. c #67AFE6",
"&. c #68AFE6",
"*. c #6BB0E6",
"=. c #6FB2E6",
"-. c #70B2E6",
";. c #71B2E6",
":. c #72B3E7",
">. c #74B4E7",
",. c #75B4E7",
"<. c #76B5E7",
"1. c #77B5E7",
"2. c #79B6E8",
"3. c #7EB8E8",
"4. c #7FB8E8",
"5. c #80B9E8",
"6. c #80B9E9",
"7. c #82BAE9",
"8. c #84BBE8",
"9. c #87BCE9",
"0. c None",
/* pixels */
"0.0.0.0.0.0.0.0.0.0.0.0.8...W H H H H H H H H H H Z z z z z z z z z z z z z t 4 4 4 4 4 4 4 4 4 4 q S p 0.0.0.0.0.0.0.0.0.0.0.0.",
"0.0.0.0.0.0.0.0.0.9.;.+.+.H H H H H H H H H H H H Z z z z z z z z z z z z z t 4 4 4 4 4 4 4 4 4 4 4 3 .   & 2 0.0.0.0.0.0.0.0.0.",
"0.0.0.0.0.0.0.5.*.+.+.+.o.H H H H H H H H H H H H A z z z z z z z z z z z z t 4 4 4 4 4 4 4 4 4 4 4 3 @         s 0.0.0.0.0.0.0.",
"0.0.0.0.0.0.1.+.+.+.+.+.+.H H H H H H H H H H H H A z z z z z z z z z z z z t 4 4 4 4 4 4 4 4 4 4 4 4 @           + 0.0.0.0.0.0.",
"0.0.0.0.0.&.+.+.+.+.+.+.+.H H H H H H H H H H H H A z z z z z z z z z z z z t 4 4 4 4 4 4 4 4 4 4 4 4 @             O 0.0.0.0.0.",
"0.0.0.0.$.+.+.+.+.+.+.+.o.H H H H H H H H H H H H A z z z z z z z z z z z z t 4 4 4 4 4 4 4 4 4 4 4 4 @               . 0.0.0.0.",
"0.0.0.;.+.+.+.+.+.+.+.+.+.H H H H H H H H H H H H A z z z z z z z z z z z z t 4 4 4 4 4 4 4 4 4 4 4 4 @                 & 0.0.0.",
"0.0.1.+.+.+.+.+.+.+.+.+.+.H H H H H H H H H H H H A z z z z z z z z z z z z t 4 4 4 4 4 4 4 4 4 4 4 4 @                   > 0.0.",
"0.0.$.+.+.+.+.+.+.+.+.+.o.H H H H H H H H H H H L A z z z z z z z z z z z z t 4 4 4 4 4 4 4 4 4 4 4 4 @                     0.0.",
"0.>.+.+.+.+.+.+.+.+.+.+.+.H H H H H H H H H H H H A z z z z z z z z z z z z t 4 4 4 4 4 4 4 4 4 4 4 4 @                     * 0.",
"0.;.+.+.+.+.+.+.+.+.+.+.+.H H H H H H H H H H H H A z z z z z z z z z z z z t 4 4 4 4 4 4 4 4 4 4 4 4 @                       0.",
"0.+.+.+.+.+.+.+.+.+.+.+.o.H H H H H H H H H H H H A z z z z z z z z z z z z t 4 4 4 4 4 4 4 4 4 4 4 4 @                       j ",
"=.+.+.+.+.+.+.+.O.O.+.O.+.H H H H H H H H H H H H A z z z z z z z z z z z z t 4 4 4 4 4 4 4 4 4 4 4 4 @                       1 ",
"} I I I I I I I I U U U U o.o.o.o.o.o.o.o.o.o.o.o._ D H D D D D D H D D D D B i i i z i z i z i i z i 8 3 3 3 3 3 3 3 3 3 3 3 p ",
"R H H H H H H H H H H H U +.+.+.+.+.+.+.+.+.+.+.$.] H H H H H H H H H H J H B z c z z z z z z z z z z w 4 4 4 4 4 4 4 4 4 4 4 7 ",
"Y H H H H H H H H H H H H +.+.+.+.+.+.+.+.+.+.+.+.] H H H H H H H H H H H H B z z z z z z z z z z z z w 4 4 4 4 4 4 4 4 4 4 4 4 ",
"Y H H H H H H H H H H H U O.+.+.+.+.+.+.+.+.+.+.+.[ H H H H H H H H H H H H B z z z z z z z z z z z z w 4 4 4 4 4 4 4 4 4 4 4 4 ",
"Y H H H H H H H H H H H H +.+.+.+.+.+.+.+.+.+.+.+.[ H H H H H H H H H H H H B z z z z z z z z z z z z w 4 4 4 4 4 4 4 4 4 4 4 4 ",
"Y H H H H H H H H H H H H +.+.+.+.+.+.+.+.+.+.+.+.[ H H H H H H H H H H H H B z z z z z z z z z z z z w 4 4 4 4 4 4 4 4 4 4 4 4 ",
"Y H H H H H H H H H H H U O.+.+.+.+.+.+.+.+.+.+.+.[ H H H H H H H H H H H H B z z z z z z z z z z z z w 4 4 4 4 4 4 4 4 4 4 4 4 ",
"Y H H H H H H H H H H H U +.+.+.+.+.+.+.+.+.+.+.+.[ H H H H H H H H H H H H B z z z z z z z z z z z z w 4 4 4 4 4 4 4 4 4 4 4 4 ",
"Y H H H H H H H H H H H H +.+.+.+.+.+.+.+.+.+.+.+.[ H H H H H H H H H H H H B z z z z z z z z z z z z w 4 4 4 4 4 4 4 4 4 4 4 4 ",
"Y H H H H H H H H H H H H +.+.+.+.+.+.+.+.+.+.+.+.[ H H H H H H H H H H H H B z z z z z z z z z z z z w 4 4 4 4 4 4 4 4 4 4 4 4 ",
"Y H H H H H H H H H H H H +.+.+.+.+.+.+.+.+.+.+.+.[ H H H H H H H H H H H H B z z z z z z z z z z z z w 4 4 4 4 4 4 4 4 4 4 4 4 ",
"Y H H H J H H H H H H H H +.+.#.+.#.+.+.+.+.+.+.+.[ H H H H H H H H H H H H B z z z z z z z z z z z z 9 4 4 4 4 4 4 4 4 4 4 4 4 ",
"J H D D D D H D D D D D H o.o.{ o.{ X.X.X.X.X.X.X.' U U U U U U U U U U U U C c c c c c c c c c c c c t 9 9 9 9 9 9 9 9 9 9 9 9 ",
"x z z z z z z z z z z z x H H H H H H H H H H H H T +.+.+.+.+.+.+.+.+.+.+.+.^ H H H H H H H H H H H H b z z z z z z z z z z z z ",
"N z z z z z z z z z z z x H H H H H H H H H H H H ! +.+.+.+.+.+.+.+.+.+.+.+.^ H H H H H H H H H H H H b z z z z z z z z z z z z ",
"N z z z z z z z z z z z z H H H H H H H H H H H H Q +.+.+.+.+.+.+.+.+.+.+.+.^ H H H H H H H H H H H H b z z z z z z z z z z z z ",
"N z z z z z z z z z z z z H H H H H H H H H H H H Q +.+.+.+.+.+.+.+.+.+.+.+.^ H H H H H H H H H H H H b z z z z z z z z z z z z ",
"N z z z z z z z z z z z z H H H H H H H H H H H H Q +.+.+.+.+.+.+.+.+.+.+.+.^ H H H H H H H H H H H H v z z z z z z z z z z z z ",
"N z z z z z z z z z z z z H H H H H H H H H H H H Q +.+.+.+.+.+.+.+.+.+.+.+.^ H H H H H H H H H H H H v z z z z z z z z z z z z ",
"c z z z z z z z z z z z x H H H H H H H H H H H H Q +.+.+.+.+.+.+.+.+.+.+.+.^ H H H H H H H H H H H H b z z z z z z z z z z z z ",
"x z z z z z z z z z z z x H H H H H H H H H H H H Q +.+.+.+.+.+.+.+.+.+.+.+.^ H H H H H H H H H H H H b z z z z z z z z z z z z ",
"N x z z z z z z z z z z x H H H H H H H H H H H H Q +.+.+.+.+.+.+.+.+.+.+.+.^ H H H H H H H H H H H H b z z z z z z z z z z z z ",
"N z z z z z z z z z z z x H H H H H H H H H H H H Q +.+.+.+.+.+.+.+.+.+.+.+.^ H H H H H H H H H H H H b z z z z z z z z z z z z ",
"N z z z z z z z z z z z x H H H H H H H H H H H H Q +.+.+.+.+.+.+.+.+.+.+.+.^ H H H H H H H H H H H H v z z z z z z z z z z z z ",
"N z z z z z z z z z z z x H H H H H H H H H H H H Q +.+.+.O.+.+.+.+.+.+.+.+.^ H H H H H H H H J H H H b z z z z z z z z z z z z ",
"l y y y y y y y y y y y u Z Z Z Z Z Z Z Z Z Z C Z J [ ' ' ' [ [ [ ' [ ' ' [ ^ ! ! ! ! ! ! ! Q ! ! ! ! C n n n n n n n n n n n n ",
"0 4 3 7 4 4 4 4 4 4 4 4 6 z z z z z z z z z z z c b H H H H H H H H H H H H ( +.+.+.+.+.+.+.+.+.+.+.+.T H H H H H H H H H H H H ",
"0 4 4 4 4 4 4 4 4 4 4 4 4 z z z z z z z z z z z z b H H H H H H H H H H H H ( +.+.+.+.+.+.+.+.+.+.+.+.T H H H H H H H H H H H H ",
"0 4 4 4 4 4 4 4 4 4 4 4 4 z z z z z z z z z z z z b H H H H H H H H H H H H ( +.+.+.+.+.+.+.+.+.+.+.+.T H H H H H H H H H H H H ",
"0 4 4 4 4 4 4 4 4 4 4 4 6 z z z z z z z z z z z z b H H H H H H H H H H H H ( +.+.+.+.+.+.+.+.+.+.+.+.T H H H H H H H H H H H H ",
"0 4 4 4 4 4 4 4 4 4 4 4 6 z z z z z z z z z z z z b H H H H H H H H H H H H ( +.+.+.+.+.+.+.+.+.+.+.+.T H H H H H H H H H H H H ",
"0 4 4 4 4 4 4 4 4 4 4 4 4 z z z z z z z z z z z z b H H H H H H H H H H H H ( +.+.+.+.+.+.+.+.+.+.+.+.T H H H H H H H H H H H H ",
"0 4 4 4 4 4 4 4 4 4 4 4 4 z z z z z z z z z z z z b H H H H H H H H H H H H ( +.+.+.+.+.+.+.+.+.+.+.+.T H H H H H H H H H H H H ",
"0 4 4 4 4 4 4 4 4 4 4 4 6 c z z z z z z z z z z z b H H H H H H H H H H H H ( +.+.+.+.+.+.+.+.+.+.+.+.T H H H H H H H H H H H H ",
"0 4 4 4 4 4 4 4 4 4 4 4 4 z z z z z z z z z z z z b H H H H H H H H H H H H ( +.+.+.+.+.+.+.+.+.+.+.+.T H H H H H H H H H H H H ",
"0 4 4 4 4 4 4 4 4 4 4 4 4 x z z z z z z z z z z z b H H H H H H H H H H H H ( +.+.+.+.+.+.+.+.+.+.+.+.T H H H H H H H H H H H H ",
"0 4 4 4 4 4 4 4 4 4 4 4 4 x z z z z z z z z z z z b H H H H H H H H H H H H ( +.+.+.+.+.+.+.+.+.+.+.+.T H H H H H H H H H H H H ",
"h 4 4 4 4 4 4 4 4 4 4 4 4 z z z z z z z z z z z z b H H H H H H H H H H H H ( +.+.+.+.+.+.+.$.+.+.+.+.T J H H H H H H H H H H R ",
"a # # # # # # # # # # # # e e e w t w t t w t w t u n n n n n n n n n n n n L ~ ~ ~ ~ ~ ~ ~ ~ ! ~ ~ ! ( _ ' ' ' [ _ _ ' ' _ '  .",
"0.                      O 4 4 4 4 4 4 4 4 4 4 4 4 8 z z z z z z z z z z z z V H H H H H H H H H H H H { +.+.+.+.+.+.+.+.+.+.+.3.",
"0.                      O 4 4 4 4 4 4 4 4 4 4 4 4 w z z z z z z z z z z z z V H H H H H H H H H H H H { +.+.+.+.+.+.+.+.+.+.+.0.",
"0.f                       4 4 4 4 4 4 4 4 4 4 4 4 w z z z z z z z z z z z z V H H H H H H H H H H H H { +.+.+.+.+.+.+.+.+.+.$.0.",
"0.0.                      4 4 4 4 4 4 4 4 4 4 4 4 w z z z z z z z z z z z z V H H H H H H H H H H H H { +.+.+.+.+.+.+.+.+.+.4.0.",
"0.0.-                   @ 4 4 4 4 4 4 4 4 4 4 4 4 w z z z z z z z z z z z z B H H H H H H H H H H H H { +.+.+.+.+.+.+.+.+.$.0.0.",
"0.0.0..                   4 4 4 4 4 4 4 4 4 4 4 4 w z z z z z z z z z z z z V H H H H H H H H H H H H { +.+.+.+.+.+.+.+.+.5.0.0.",
"0.0.0.M                   4 4 4 4 4 4 4 4 4 4 4 4 w z z z z z z z z z z z z V H H H H H H H H H H H H { +.+.+.+.+.+.+.+.>.0.0.0.",
"0.0.0.0.;                 4 4 4 4 4 4 4 4 4 4 4 4 w z z z z z z z z z z z z V H H H H H H H H H H H H { +.+.+.+.+.+.+.&.0.0.0.0.",
"0.0.0.0.0.g .           . 6 4 4 4 4 4 4 4 4 4 4 4 w z z z z z z z z z z z z V H H H H H H H H H H H H { +.+.+.+.+.$.:.0.0.0.0.0.",
"0.0.0.0.0.0.0.%         . 6 4 4 4 4 4 4 4 4 4 4 4 w z z z z z z z z z z z z V H H H H H H H H H H H H { +.+.+.+.$.>.0.0.0.0.0.0.",
"0.0.0.0.0.0.0.0.s =       4 4 4 4 4 4 4 4 4 4 4 4 w z z z z z z z z z z z z V H H H H H H H H H H H H { $.+.$.2.0.0.0.0.0.0.0.0.",
"0.0.0.0.0.0.0.0.0.0.0.s s 4 4 4 4 4 4 4 4 4 4 4 4 w z z z z z z z z z z z z V H H H H H H H H H H H H O.>.5.0.0.0.0.0.0.0.0.0.0."
};
