/* XPM */
static char *_4ddcacbd58e40289ad0130a67f15269[] = {
/* columns rows colors chars-per-pixel */
"64 64 179 2 ",
"   c #5D6167",
".  c #6F7277",
"X  c #73767A",
"o  c #797C7F",
"O  c #76797D",
"+  c #61656A",
"@  c #D59D00",
"#  c #D7A001",
"$  c #DAA402",
"%  c #DDA904",
"&  c #DAA40D",
"*  c #DDAB0D",
"=  c #DCA611",
"-  c #DEAA14",
";  c #DFAD18",
":  c #DFB119",
">  c #E1AF0B",
",  c #E6B70B",
"<  c #E1AE13",
"1  c #E1AD1B",
"2  c #E5A714",
"3  c #E2B315",
"4  c #EDBE17",
"5  c #E3B21D",
"6  c #E8B51E",
"7  c #E6BA1B",
"8  c #EDBF1C",
"9  c #E7AE24",
"0  c #E8AF26",
"q  c #E6B422",
"w  c #E9B525",
"e  c #E6BA24",
"r  c #EBBB25",
"t  c #E3B42C",
"y  c #EAB52A",
"u  c #ECBB2C",
"i  c #E5BB2D",
"p  c #EDBD30",
"a  c #E5B833",
"s  c #EDC315",
"d  c #EDC01C",
"f  c #F1CA1A",
"g  c #F2C51F",
"h  c #F5D21D",
"j  c #EEC222",
"k  c #EDC22D",
"l  c #ECCA2D",
"z  c #EEC925",
"x  c #F0C326",
"c  c #F2CB25",
"v  c #F1C52B",
"b  c #F3CC2C",
"n  c #FADB25",
"m  c #F5D22D",
"M  c #FBDD2B",
"N  c #F8D621",
"B  c #EEC433",
"V  c #EECC32",
"C  c #ECC33B",
"Z  c #F0C532",
"A  c #F2CB34",
"S  c #F1CA3A",
"D  c #F5D332",
"F  c #F8D632",
"G  c #F6DA35",
"H  c #FADB33",
"J  c #F4D43A",
"K  c #F5DA3E",
"L  c #F8DE3C",
"P  c #FDE029",
"I  c #EBC34D",
"U  c #EDCA4E",
"Y  c #E9C148",
"T  c #F1CA42",
"R  c #F0CD4E",
"E  c #F0C64A",
"W  c #F6DC41",
"Q  c #F4D347",
"!  c #EECD5B",
"~  c #EBC855",
"^  c #F2CE51",
"/  c #F0CB5B",
"(  c #F4D256",
")  c #F1D05A",
"_  c #F6D858",
"`  c #F9E15C",
"'  c #EDCC63",
"]  c #EDCD6C",
"[  c #F1CF63",
"{  c #EFD26B",
"}  c #F3D364",
"|  c #F4D56A",
" . c #F8DB65",
".. c #EECF72",
"X. c #F1CD78",
"o. c #EFD377",
"O. c #F3D474",
"+. c #F5D976",
"@. c #F3D67C",
"#. c #F5DA7D",
"$. c #FAE86F",
"%. c #F8E271",
"&. c #797C80",
"*. c #7D8184",
"=. c #828589",
"-. c #86898D",
";. c #888B8F",
":. c #8B8E90",
">. c #8E9093",
",. c #939496",
"<. c #949699",
"1. c #999B9E",
"2. c #9C9EA1",
"3. c #9FA1A4",
"4. c #A3A6A9",
"5. c #A6A8AB",
"6. c #A9ABAD",
"7. c #A1A3A6",
"8. c #AFB1B3",
"9. c #B4B5B6",
"0. c #BBBCBE",
"q. c #B6B8BA",
"w. c #F5DC81",
"e. c #F6DE8D",
"r. c #F4D985",
"t. c #F4DC93",
"y. c #F4DF9C",
"u. c #F8DF90",
"i. c #F6E08E",
"p. c #F8E38C",
"a. c #F8E285",
"s. c #F7E193",
"d. c #F8E493",
"f. c #FCEC96",
"g. c #F6E19D",
"h. c #F8E49D",
"j. c #FDEF99",
"k. c #FEF19A",
"l. c #F6E2A5",
"z. c #F9E6A3",
"x. c #FAE9A4",
"c. c #F3E1AE",
"v. c #FAEAAC",
"b. c #FAE7A8",
"n. c #F5E4B2",
"m. c #F9E6B2",
"M. c #F7E9B7",
"N. c #FBEBB4",
"B. c #F7EABC",
"V. c #FAECBB",
"C. c #FCF2BB",
"Z. c #FDF0B7",
"A. c #BEBFC1",
"S. c #BEC0C2",
"D. c #C5C6C8",
"F. c #C9CACC",
"G. c #C2C3C5",
"H. c #CDCED0",
"J. c #D3D4D6",
"K. c #D7D8D9",
"L. c #DCDCDD",
"P. c #FAEDC3",
"I. c #FBEFCA",
"U. c #FCF1C6",
"Y. c #FCF1CD",
"T. c #FCF2D3",
"R. c #FEF8D1",
"E. c #FDF5DB",
"W. c #DFDFE0",
"Q. c #E4E4E5",
"!. c #E7E8EA",
"~. c #ECEDED",
"^. c #FDF6E1",
"/. c #FEF8E4",
"(. c #FEFAEC",
"). c #F4F4F5",
"_. c #FFFCF4",
"`. c #FFFFFF",
"'. c None",
/* pixels */
"'.'.'.'.'.'.'.'.'.'.'.'.'.'.'.'.'.'.'.'.'.'.'.'.'.'.'.'.'.'.'.'.'.'.'.'.'.'.'.'.'.'.'.'.'.'.'.'.'.'.'.'.'.'.'.'.'.'.'.'.'.'.'.'.",
"'.'.'.'.'.'.'.'.'.'.'.'.'.'.'.'.'.'.'.'.'.'.'.'.'.'.'.'.'.'.'.'.'.'.'.'.'.'.'.'.'.'.'.'.'.'.'.'.'.'.'.'.'.'.'.'.'.'.'.'.'.'.'.'.",
"'.'.'.'.'.! ) ) ) ) ) ) ) ) ) ) ) ) ) ) ) ) ) ) ) ) ) ) ) ) ) ) ) ) ) ) ) ) ) ) ) ) ) ) ) ) ) ) ) ) ) ) ) ) ) ) ) ) ! ! '.'.'.'.",
"'.'.'.r j 4 4 4 4 4 4 4 4 4 4 4 4 4 4 4 4 4 4 4 4 4 4 4 4 4 4 4 4 4 4 4 4 4 4 4 4 4 4 4 4 4 4 4 4 4 4 4 4 4 4 4 4 4 4 j r '.'.'.",
"'.'.k x x ^ | | | | | | | | | | | | | | | | | | | | | | | | | | | | | | | | | | | | | | | | { { | | | | | | | | | | ( k j k 7 '.",
"'.k j S U.`.`.`.`.`.`.`.`.`.`.`.`.`.`.`.`.`.`.`.`.`.`.`.`.`.`.`.`.`.`.`.`.`.`.`.`.`.`.`.`.`.`.`.`.`.`.`.`.`.`.`.`.`.`.Y.Q j r '.",
"B k k T.`.`.`.`.`.`.`.`.`.`.`.`.`.`.`.`.`.`.`.`.`.`.`.`.`.`.`.`.`.`.`.`.`.`.`.`.`.`.`.`.`.`.`.`.`.`.`.`.`.`.`.`.`.`.`.`.E.v g { ",
"B d } `.`.`.`.`.`.`.`.`.`.`.`.`.`.`.`.`.`.`.`.`.`.`.`.`.`.`.`.`.`.`.`.`.`.`.`.`.`.`.`.`.`.`.`.).`.`.`.`.`.`.`.`.`.`.`.`.`.+.d C ",
"B d w.`.`.`.`.`._.P.c.n.n.n.c.n.c.c.c.c.c.c.c.c.c.c.c.c.c.c.c.c.c.c.c.c.n.c.n.c.n.n.M.n.M.M.M.M.M.C.C.C.C.C.R.`.`.`.`.`.`.i.d B ",
"B d w.`.`.`.`.T.a * % % % $ % $ $ $ $ # # # @ @ @ @ @ @ @ @ @ @ @ @ @ @ @ # # & & * * 3 7 7 7 z z l l l G G K $.(.`.`.`.`.i.8 Z ",
"B d w.`.`.`.(.i > 3 3 3 < * * * = * * = & & & & & & & & @ & & & & & & & & & = - : : : 7 e e e l l l V K J K K G $._.`.`.`.i.8 B ",
"B d w.`.`.`.l., 7 3 3 3 3 3 < 3 3 * * * & * * * & & = & & & & & & & & & = = - ; : : : e e e e l l V V V J K W W L R.`.`.`.e.d B ",
"B d w.`.`.`.r., 7 7 7 7 7 3 3 3 * % 3 * t t a 1 = & & = = = = = & = = = ; - ; ; : 5 5 e k k i l l V V J J J K W G C.`.`.`.i.8 B ",
"B d w.`.`.`.i., d 7 7 7 7 7 3 > t t.I.M.~ X...] I t = = ; = = ; = = = = ; 1 ; : 5 5 5 e e e l i l V V J J J K W G C.`.`.`.e.d B ",
"B d w.`.`.`.p., d d 7 e 7 7 7 o.).`.`.`.y.~ ] ] ] ..a = ; ; 2 - 1 = 1 1 ; 1 1 : e 5 e e e z k k B V V J J J K W G C.`.`.`.i.8 B ",
"B d w.`.`.`.d.s j d d j 7 j B.`.`.`.`.`.~.y.c.c.t.t.I ; 1 ; ; 1 1 1 1 1 1 1 1 t 5 e i e k i k k B V V V A J K K H C.`.`.`.e.d B ",
"B d w.`.`.`.i.s f j j d 7 V.`.`.`.`.`.(.B.l.g.c.(.T.P.9 ; 1 1 1 1 ; 1 1 5 5 q 5 q w e r i k k v l V C V A J J W F V.`.`.`.i.8 B ",
"B d w.`.`.`.d.s z z z s } `.`.`.`.I.o.~ ' o.o.o.T.t.c.t 1 1 q 1 1 q 1 1 5 q 5 q e e e u j u k k B l V V J J J J F V.`.`.`.e.d B ",
"B d w.`.`.`.f.f c c z s x.`.`.(.`.@.r.i.o.] { ' P.n.c.I 1 6 1 1 q 1 1 q q q q q q e e i u k k B Z V V S S J J Q D Z.`.`.`.i.4 B ",
"B d w.`.`.`.f.f c c l s v.`.s.i.`.M.' @.e.t.r.r.M.I.y.X.3 9 w 1 9 9 6 q q q w w w e r r i k k x Z V A S A A D J A Z.`.`.`.e.d B ",
"B d w.`.`.`.d.h m h c f #.b.z.h.(.T.i.o.' +.@.o.t.E.y.r.6 6 6 9 6 q q q w e q e e r i j x u Z Z B Z V A A S A J b Z.`.`.`.i.8 B ",
"B d #.`.`.`.f.h m c m z Q U.a.h.^.^.O.s.r.o.[ ! r.`.B.y.y q w 6 q q q w w w e w y y i u v u u Z v Z Z A A S J A b Z.`.`.`.e.d B ",
"B d w.`.`.`.f.h m m m c A Z.Z.#.P._.a.! @.e.e.r.y._.E.l.Y 6 y w w w w w e y y e e u r u u u v Z B Z V A A A A J b V.`.`.`.i.8 B ",
"B d #.`.`.`.f.N m m m m c z.v.b.h.`.M.#.[ ' r.r.t.(.T.y./ 6 r r w w w y e r y r y r u u p p p v v B Z Z A A A A b Z.`.`.`.e.d B ",
"B d w.`.`.`.f.N F D m m h a.v.p.N._.V.w.z.r.@.O.{ b.T.t.X.6 r r e y e y y e r r u y x u v p p p v Z Z Z Z A S S b N.`.`.`.e.8 B ",
"C d #.`.`.`.j.N M D D m c _ U.d.p.(.^.| | u.g.g.g.l./.l.t.y y y y e i y y i y u u u u u v u v Z p Z Z Z Z Z S Z v N.`.`.`.e.8 B ",
"B d w.`.`.`.j.n F F m D m Q v.v.p.U._.m.u.O.O.@.r.r.E.l.l.C r u y i y u y u u y u u u p p p v p p Z Z Z Z Z Z Z v N.`.`.`.i.8 B ",
"B d w.`.`.`.j.n M M F m m D x.p.h.V.`.N.e.e.| [ [ / l.g.e.E r y u u u y u u u u u u u p p p p p v p Z Z Z Z Z Z x N.`.`.`.e.d B ",
"B d w.`.`.`.j.P H H F D m h p.Z.#.b.`.m.^ | z.I.T.T.I.T.T.r.6 u u u y u u u p i u p u p p p p p p Z Z p Z Z Z Z u N.`.`.`.i.8 B ",
"B d w.`.`.`.j.n H H G D D m  .v.x.a.(.E./.`.`._.r.r.O.X.+.] u u u i u i u u u u u p p u v p p v p p v p p Z p Z x N.`.`.`.e.d B ",
"B d w.`.`.`.j.M H H H D D c _ h.d.E.`.`.`.`.`.`.+.@.+.r.r.X.y u u u y p u p u u p u u u u u p p p p p p p Z p Z x m.`.`.`.i.8 B ",
"B d w.`.`.`.j.P H H H G D D D E.`.`.`.`.`.`.`._.O.@.+.@.r./ u u p u u u u y i p u u p p u p p p p p p p p p Z p x m.`.`.`.e.d B ",
"B d #.`.`.`.k.P H H F F F m b I.`.`.`.`.`.`._.g.@.O.@.r./ p p u a u y p u i u p p u p u p u p p u p p p p p p p y m.`.`.`.e.8 B ",
"B d w.`.`.`.k.P H H H F F F b  ._.`.`.`.`.(.i.O.@.@.| E u u p p p p p i u u p y u u u p u p u p p u p u p p p p w m.`.`.`.e.d B ",
"B d w.`.`.`.j.P H H F F m D D b _ b./.`.`._.(.(.V.Z x y p u p u p a y u y p u u p u u p p u p u u p u u p p y p w m.`.`.`.i.8 B ",
"B d w.`.`.`.j.P L H F F D D D A b j R _.`.`.`.`.(.Z u u p p u p p p p p p u u i u u u u u u y p u u u u p y p p 6 m.`.`.`.e.d B ",
"B d w.`.`.`.j.P H L H H D m A b b Z x Z.`.`.`.`.`.^ r u u u u u p p u u p y p u u u u y y p y u y u u y u y y y w m.`.`.`.i.8 B ",
"B j w.`.`.`.j.M H P F F D D m b b b x } (.P.(.`.`.X.8 u u u u x y p u u p i p u u y y u u y u u y y y y y y y y 6 m.`.`.`.e.d B ",
"B d w.`.`.`.k.n H F F m m b D b b v v v l.(.Y.`.`.u.6 u y u y x u u u u u u u u u u x y y y y y y y y y y y y y 9 c.`.`.`.i.8 B ",
"B d #.`.`._.k.n H F M D D b b b b b v x ^ Y.I.`.(.^ x u x u u u u u y u u u u u u y y u y y y y y y y y y y y y 9 c.`.`.`.e.d B ",
"B d w.`.`.`.C.N M D D D b b m v v v v v j v._.`.I.8 u r r u u x y x y y u u y u y y y r y y y 0 y 0 y 0 0 0 y 0 9 T.`.`.`.e.8 B ",
"B d w.`.`.`._.` h m m c c c v x c v x x d V.`.`.U.8 r x r u u r x y y x y r r r r r w y w w w w 0 0 0 0 0 0 9 2 ] `.`.`.`.e.8 B ",
"B d w.`.`.`.`.(.%.D D b D b b b Z Z v v x I.`.`.Y.u k u u x u u u u x y u u u u u r y y y y y y y y 0 t y 0 a X._.`.`.`.`.e.8 B ",
"C d #.`.`.`.`.`.`.(.^./././.^./.E./.^.^.^.`.`.`._.E.^.^.^.^.^.^.^.^.^.^.^.^.^.^.^.^.^.^.^.^.^.^.^.^.^.^.^.^.(.`.`.`.`.`.`.u.8 B ",
"B d #.`.`.`.`.`.`.`.`.`.`.`.`.`.`.`.`.`.`.`.`.`.`.`.`.`.`.`.`.`.`.`.`.`.`.`.`.`.`.`.`.`.`.`.`.`.`.`.`.`.`.`.`.`.`.`.`.`.`.i.8 B ",
"B d w.`.`.`.`.`.`.`.`.`.`.`.`.`.`.`.`.`.`.`.`.`.`.`.`.`.`.`.`.`.`.`.`.`.`.`.`.`.`.`.`.`.`.`.`.`.`.`.`.`.`.`.`.`.`.`.`.`.`.i.d B ",
"B d w.`.`.`.`.`.`.`.`.`.V.z.h.v./.`.`.| I.`.`.`.`.`.`.`.`.`.`.`.`.`.`.`.`.`.`.L.7.`.`.`.L.G.`.`.`.`.`.`.`.`.`.`.`.`.`.`.`.i.8 B ",
"B 8 w.`.`.`.`.`.`.`.`.`.^ S } R Z E._.d.E.`.z.N.`.`.`.`.`.`.`.`.`.`.`.`.`.`.`.L.>.`.`.`.Q.H.`.`.`.`.`.`.`.`.`.`.`.`.`.`.`.i.d B ",
"B d w.`.`.`.`.`.`.`.`.`.^ h.`.`.B h.`.h./.T.S ^ w._.J.A.>.Q.Q.1.<.0.`.`.W.,.<.5.1.`.`.`.!.L.`.).7.,.4.`.`.`.`.`.`.`.`.`.`.i.8 B ",
"C d #.`.`.`.`.`.`.`.`.`.( | V.h.E E._.Z V.T.A | z._.  <.W._.Q.K.~.=.K.).. J.Q.O =.`.`.`.D.2.`.;.8.Q.4.>.`.`.`.`.`.`.`.`.`.i.8 B ",
"B d w.`.`.`.`.`.`.`.`.`.) S ) S ( (.`.S V.`.^ z.`.`.X ).`.`.`.~.K.,.G.G.3.`.`.H.;.`.`.`.F.4.).*.`.`.`.&.~.`.`.`.`.`.`.`.`.i.8 B ",
"B 8 w.`.`.`.`.`.`.`.`.`.^ h.`.`.^ +.`.S V.`.R h.`.`.-.).`.`.2.>.5.o F.q.9.`.`.K.<.`.`.`.F.5.!.;.`.`.`.-.Q.`.`.`.`.`.`.`.`.i.d B ",
"B d w.`.`.`.`.`.`.`.`.`.^ i.`._.T +.`.C V.`.R d.`.`.=.).`.W.&.`.`.<.S.H.<.`.`.A.=.`.`.`.F.4._.O `.`.`.X ).`.`.`.`.`.`.`.`.i.8 B ",
"B 8 w.`.`.`.`.`.`.`.`.`.) v E S ^ E.`.S V.`.r.v } /.-.).`.).X 9.8.+ G._.&.5.0.X <.`.-.Q.H.3.`.6.-.0.=.8.`.`.`.`.`.`.`.`.`.i.d B ",
"B 8 w.`.`.`.`.`.`.`.`.`./.I.Y.E.`.`._.E._.`.`.P.P._.!.`.`.`.~.9.F.).).`._.A.0.~.).`.H.).).~.`.`.J.9.J.`.`.`.`.`.`.`.`.`.`.i.8 B ",
"B j w.`.`.`.`.`.`.`.`.`.`.`.`.`.`.`.`.`.`.`.`.`.`.`.`.`.`.`.`.`.`.`.`.`.`.`.`.`.`.`.`.`.`.`.`.`.`.`.`.`.`.`.`.`.`.`.`.`.`.i.d B ",
"B d | _.`.`.`.`.`.`.`.`.`.`.`.`.`.`.`.`.`.`.`.`.`.`.`.`.`.`.`.`.`.`.`.`.`.`.`.`.`.`.`.`.`.`.`.`.`.`.`.`.`.`.`.`.`.`.`.`.`.+.d C ",
"B k v E.`.`.`.`.`.`.`.`.`.`.`.`.`.`.`.`.`.`.`.`.`.`.`.`.`.`.`.`.`.`.`.`.`.`.`.`.`.`.`.`.`.`.`.`.`.`.`.`.`.`.`.`.`.`.`.`./.B g { ",
"'.k x R T.`.`.`.`.`.`.`.`.`.`.`.`.`.`.`.`.`.`.`.`.`.`.`.`.`.`.`.`.`.`.`.`.`.`.`.`.`.`.`.`.`.`.`.`.`.`.`.`.`.`.`.`.`.`.E.^ j 8 '.",
"'.'.k j v ) +.+.+.+.+.+.+.+.+.+.+.+.+.+.+.+.+.+.+.+.+.+.+.+.+.+.+.+.+.+.+.+.+.+.+.+.+.+.+.+.+.+.+.+.+.+.+.+.+.+.+.+.} v d v e '.",
"'.'.e j j 4 4 4 4 s 4 4 4 4 4 4 4 4 4 4 4 s 4 4 4 4 4 4 s 4 4 4 4 4 4 s 4 4 4 4 4 4 4 4 4 s 4 4 4 4 4 4 4 4 4 4 4 4 d j j e '.'.",
"'.'.'.'.U U ^ ^ ^ ^ U ^ ^ U ^ ^ U ^ ^ ^ ^ U ^ ^ U ^ U ^ U ^ ^ ^ ^ U ^ ^ U ^ U ^ U ^ ^ ^ ^ ^ U ^ ^ U ^ ^ ^ ^ U ^ R ^ U U '.'.'.'.",
"'.'.'.'.'.'.'.'.'.'.'.'.'.'.'.'.'.'.'.'.'.'.'.'.'.'.'.'.'.'.'.'.'.'.'.'.'.'.'.'.'.'.'.'.'.'.'.'.'.'.'.'.'.'.'.'.'.'.'.'.'.'.'.'.",
"'.'.'.'.'.'.'.'.'.'.'.'.'.'.'.'.'.'.'.'.'.'.'.'.'.'.'.'.'.'.'.'.'.'.'.'.'.'.'.'.'.'.'.'.'.'.'.'.'.'.'.'.'.'.'.'.'.'.'.'.'.'.'.'."
};
