/* XPM */
static char *_578415696080[] = {
/* columns rows colors chars-per-pixel */
"16 16 41 1 ",
"  c #285E6B",
". c #2A5F6C",
"X c #2F616E",
"o c #33636F",
"O c #2D697B",
"+ c #356470",
"@ c #376571",
"# c #2F6E81",
"$ c #306E82",
"% c #327389",
"& c #34768F",
"* c #357892",
"= c #367B96",
"- c #387E9B",
"; c #387E9C",
": c #3A82A2",
"> c #3C83A7",
", c #3E87AC",
"< c #3F88B0",
"1 c #418BB6",
"2 c #438EBC",
"3 c #448FBF",
"4 c #4791BF",
"5 c #4793C7",
"6 c #4993C2",
"7 c #4A94C5",
"8 c #4F9ACF",
"9 c #519CD1",
"0 c #529DD2",
"q c #549FD4",
"w c #56A1D7",
"e c #58A1D7",
"r c #5AA5DB",
"t c #5BA5DC",
"y c #5DA7DE",
"u c #63ADE5",
"i c #67AEE5",
"p c #67AFE5",
"a c #6CB0E6",
"s c #6EB1E6",
"d c None",
/* pixels */
"ddi9551::;%%%X+d",
"duu9551::;%%%  @",
"iuu9551::;%%%  o",
"555tuuw554:::%%%",
"555tuuw55<:::%%%",
"555tuuw556:::%%%",
",,,788wyyr622;;;",
":::255wuuy555:::",
":::255wuuy555:::",
"***:<<5q0qttt35<",
"%%%;::<558uuu555",
"%%%;::2558uuu555",
"OOO&==><<6qrqwww",
".. #%%=::<555uua",
"d. #%%=::<555uud",
"ddd#%%=::,555add"
};
