/* XPM */
static char *ba102804bbb9465dc2b797edee4026c3[] = {
/* columns rows colors chars-per-pixel */
"32 32 153 2 ",
"   c #D89F00",
".  c #DAA201",
"X  c #DFAB05",
"o  c #DEAC0C",
"O  c #DEA913",
"+  c #E1AD00",
"@  c #E1AF08",
"#  c #E2B10B",
"$  c #ECB60F",
"%  c #E3AB14",
"&  c #E2AE1A",
"*  c #E8AD19",
"=  c #E3B514",
"-  c #E7B910",
";  c #EBBF14",
":  c #E5B21E",
">  c #EBB31C",
",  c #E6BA1A",
"<  c #ECBA1C",
"1  c #F0BD10",
"2  c #E5B422",
"3  c #E9B623",
"4  c #E6B822",
"5  c #EBBA25",
"6  c #ECB62A",
"7  c #EDBC2D",
"8  c #E4B630",
"9  c #EEBE30",
"0  c #ECBF39",
"q  c #ECC116",
"w  c #ECC31C",
"e  c #F2C61E",
"r  c #F3CB1D",
"t  c #F6D319",
"y  c #EFC325",
"u  c #ECC825",
"i  c #EEC22D",
"p  c #F3CC22",
"a  c #F1C32B",
"s  c #F4CD2D",
"d  c #F5D322",
"f  c #F9D927",
"g  c #F6D22B",
"h  c #F7DA2E",
"j  c #FBDB2A",
"k  c #EEC532",
"l  c #EFC931",
"z  c #EFC23D",
"x  c #EFC83C",
"c  c #F1C431",
"v  c #F3CB35",
"b  c #F1CA3E",
"n  c #F5D432",
"m  c #F8D731",
"M  c #F6D935",
"N  c #F9D933",
"B  c #F4D33A",
"V  c #E6BF47",
"C  c #E7C047",
"Z  c #E8C142",
"A  c #EFC941",
"S  c #F1CB42",
"D  c #EFCE52",
"F  c #E6C25E",
"G  c #E9C75F",
"H  c #EAC85D",
"J  c #F0C855",
"K  c #F6D653",
"L  c #F4D45C",
"P  c #F5D85C",
"I  c #E7C662",
"U  c #EAC962",
"Y  c #EDCD6B",
"T  c #F1CB6C",
"R  c #EED36E",
"E  c #F5D567",
"W  c #F7DD60",
"Q  c #F3D26D",
"!  c #F7DD6D",
"~  c #F9DD68",
"^  c #F3CF70",
"/  c #F4D574",
"(  c #F5D975",
")  c #F8DC77",
"_  c #F2D57A",
"`  c #F5D87C",
"'  c #F9DE78",
"]  c #FBE464",
"[  c #FCE768",
"{  c #FEEA6A",
"}  c #F6E27A",
"|  c #FAE47C",
" . c #FBE97C",
".. c #A8AAAD",
"X. c #AEB0B5",
"o. c #B3B5B7",
"O. c #B5B7B9",
"+. c #B6B8BA",
"@. c #BABCBE",
"#. c #EFD582",
"$. c #F2D285",
"%. c #F6DB84",
"&. c #F8DE80",
"*. c #F3D688",
"=. c #F6DA8A",
"-. c #F3DE94",
";. c #F5DC9E",
":. c #FAE382",
">. c #F8E28A",
",. c #F7E192",
"<. c #F8E394",
"1. c #FDEC92",
"2. c #F7E19F",
"3. c #F9E59C",
"4. c #F6DFA9",
"5. c #F9E6A3",
"6. c #FAEAA5",
"7. c #F7E4AB",
"8. c #FAE9AD",
"9. c #FDF1A1",
"0. c #FAEBB5",
"q. c #FBEDBC",
"w. c #BFC0C2",
"e. c #C2C3C5",
"r. c #C6C7C9",
"t. c #C7C8CA",
"y. c #CACCCD",
"u. c #CDCFD4",
"i. c #D3D4D5",
"p. c #D7D8D9",
"a. c #DDDEDF",
"s. c #EFE6C5",
"d. c #FCEFC3",
"f. c #F6ECC8",
"g. c #FAEECC",
"h. c #FCF0C6",
"j. c #FCF2CB",
"k. c #FDF4D5",
"l. c #FDF6D9",
"z. c #DEDFE0",
"x. c #E3E4E5",
"c. c #E7E7E8",
"v. c #EAEAEB",
"b. c #FCF7E3",
"n. c #FEF8E3",
"m. c #FFFBEC",
"M. c #EFEFF0",
"N. c #EFF0F0",
"B. c #F2F2F3",
"V. c #FFFDF4",
"C. c #F2F4FB",
"Z. c #FFFFFF",
"A. c None",
/* pixels */
"A.A.A.A.A.A.A.A.A.A.A.A.A.A.A.A.A.A.A.A.A.A.A.A.A.A.A.A.A.A.A.A.",
"A.A.b S S S S S S S S S S S S S S S S S A A S S S S S S S A A.A.",
"A.i >.8.8.8.8.8.8.8.8.8.8.8.8.8.8.8.8.8.8.8.8.8.8.8.8.8.8.>.y A.",
"y ,.Z.Z.Z.Z.Z.Z.Z.Z.Z.Z.Z.Z.Z.Z.Z.Z.Z.Z.Z.Z.Z.Z.Z.Z.Z.Z.Z.Z.3.k ",
"y q.Z.V.#.H U G G F G F F F F F F F I I U R R R ( }  .9.Z.Z.d.y ",
"y q.Z._ + @ X X . . . .             . . o = , w u s n h 9.Z.d.y ",
"y q.Z.D - , = # V Y V V 2 O O O O O O & & 4 i u l B B M  .Z.d.y ",
"y q.Z.L ; w , ,.Z.Z.7.*.$.8 O & & & & : 2 4 5 k l B B M  .Z.d.y ",
"y q.Z.P q q ,.Z.V.0.-.-.f.Y O & & & : 2 4 5 i i k l B n | Z.d.y ",
"y q.Z.W r p j.l.h.R _ _ 0._ & 2 2 2 2 4 4 5 7 c l l B n | Z.d.y ",
"y q.Z.] d p :.5.l.%._ R q.7.6 2 3 3 4 5 5 7 7 c l v v s } Z.d.y ",
"y q.Z.] d p ! 6.l.,./ _ d.d.0 > 3 6 5 5 5 7 7 c k l v s ' Z.d.y ",
"y q.Z.] f g K 6.j.0.%.%.2.q.J 3 6 6 5 7 7 7 a c c c v a ) Z.d.y ",
"y q.Z.[ f g B 3.0.k.) / *.0./ 5 6 7 7 8 7 7 7 a c c c a ) Z.d.y ",
"y q.Z.{ f N n >.6.l.0.k.5.2.=.7 7 7 7 7 7 9 9 9 a c c 7 / Z.d.y ",
"y q.Z.{ f N g :.n.Z.Z.Z.` _ ^ 9 7 7 7 7 9 9 9 7 c 9 c 5 ) Z.d.y ",
"y q.Z.{ j N g ~ Z.Z.Z.0./ E z 7 9 9 7 7 7 7 7 a 9 9 9 5 / Z.d.y ",
"y q.Z.{ j N m s K d.Z.m.%.5 7 7 9 7 7 7 7 7 7 9 7 7 7 6 ^ Z.d.y ",
"y q.Z.{ j N n s e E m.Z.0.5 7 7 7 9 9 7 7 7 7 7 6 6 6 3 ^ Z.d.y ",
"y q.Z.] f N n s s y 3.Z.0.5 7 a 5 7 7 7 7 6 6 6 6 6 6 > T Z.d.y ",
"y q.Z.1.t d r r e 1 E Z./ $ < < 3 < > < > > > * * * * % ;.Z.d.y ",
"y q.Z.Z.6.:.>.>.>.%.0.Z.0.#.%.=.=.=.=.=.=.*.*.*.*.*.$.4.Z.Z.d.y ",
"y q.Z.Z.Z.Z.Z.Z.Z.Z.Z.Z.Z.Z.Z.Z.Z.Z.Z.Z.Z.Z.Z.Z.Z.Z.Z.Z.Z.Z.d.y ",
"y q.Z.Z.Z.Z.,.,.d.j.n.k.Z.Z.Z.Z.Z.Z.Z.x.p.Z.x.Z.Z.Z.Z.Z.Z.Z.d.y ",
"y q.Z.Z.Z.Z.( 6.,.d.q.L f.X.a.z.@.x.e...t.Z.p.a.+.e.Z.Z.Z.Z.d.y ",
"y q.Z.Z.Z.V.) 6.,.5.0.,.C.w.Z.i.o.X.x.v.y.Z.e.+.Z.t.c.Z.Z.Z.d.y ",
"y q.Z.Z.Z.Z./ 6.<.6.j.' s.i.M.o.+.e.t.w.t.c.t.t.y.@.B.Z.Z.Z.d.y ",
"y q.Z.Z.Z.Z.b.k.Z.V.Z.m.b.C.Z.x.x.Z.v.z.Z.N.Z.Z.z.M.Z.Z.Z.Z.d.y ",
"y 3.Z.Z.Z.Z.Z.Z.Z.Z.Z.Z.Z.Z.Z.Z.Z.Z.Z.Z.Z.Z.Z.Z.Z.Z.Z.Z.Z.Z.3.k ",
"A.a ,.0.0.0.0.0.0.0.0.0.0.0.0.0.0.0.0.0.0.0.0.0.0.0.0.0.0.<.i A.",
"A.A.x b S x x x b b b x x S b b b x x S b b b x x S x b x b A.A.",
"A.A.A.A.A.A.A.A.A.A.A.A.A.A.A.A.A.A.A.A.A.A.A.A.A.A.A.A.A.A.A.A."
};
