/* XPM */
static char *_6d601104b2a480e8b919a14b7901d7d[] = {
/* columns rows colors chars-per-pixel */
"16 16 199 2 ",
"   c #DFA609",
".  c #E0A80D",
"X  c #E8B701",
"o  c #E1AC11",
"O  c #EBB017",
"+  c #EEB816",
"@  c #E6B519",
"#  c #E6B11C",
"$  c #E6B11D",
"%  c #E7B521",
"&  c #EAB622",
"*  c #EDB521",
"=  c #EEB622",
"-  c #EEB823",
";  c #EBB926",
":  c #EABB26",
">  c #ECB925",
",  c #EFBB24",
"<  c #EFBA25",
"1  c #EFBB25",
"2  c #EDBB28",
"3  c #EDBD29",
"4  c #EDBC2B",
"5  c #EEBD2D",
"6  c #EFBE2D",
"7  c #EFBD2E",
"8  c #EFBE2E",
"9  c #EEBE2F",
"0  c #EFBE2F",
"q  c #EFBF2F",
"w  c #F0BE2E",
"e  c #E5B835",
"r  c #ECBC31",
"t  c #E4BA3A",
"y  c #E3B83F",
"u  c #E7BE3E",
"i  c #F1C718",
"p  c #F8D41E",
"a  c #FAD71E",
"s  c #EBC123",
"d  c #EFC32D",
"f  c #F7CD20",
"g  c #F1C028",
"h  c #F3C62B",
"j  c #F0C02F",
"k  c #F0C32E",
"l  c #F1C22F",
"z  c #F5CA2F",
"x  c #F1CC2C",
"c  c #F6CC2E",
"v  c #F5D020",
"b  c #FBD921",
"n  c #FCDB26",
"m  c #F6D62C",
"M  c #EBC339",
"N  c #F1C130",
"B  c #F2C531",
"V  c #F3C933",
"C  c #F3CC33",
"Z  c #F7D231",
"A  c #F9D63F",
"S  c #E3B940",
"D  c #E2B843",
"F  c #E3B843",
"G  c #E4BC47",
"H  c #E9C54F",
"J  c #EBC74F",
"K  c #F1CC47",
"L  c #F1C74F",
"P  c #F1CC48",
"I  c #F2CB55",
"U  c #F5CD57",
"Y  c #F1C65A",
"T  c #F3C95D",
"R  c #F5CE5D",
"E  c #F4CC5E",
"W  c #F5CE5F",
"Q  c #EFD059",
"!  c #F2D055",
"~  c #F2D056",
"^  c #F6D459",
"/  c #FADD5D",
"(  c #F0C763",
")  c #F5D266",
"_  c #F4DB61",
"`  c #F8DB64",
"'  c #F6D46C",
"]  c #EECF70",
"[  c #F5D87B",
"{  c #F7DC7F",
"}  c #FAE166",
"|  c #FAE072",
" . c #FAE773",
".. c #F7DD80",
"X. c #F7DE83",
"o. c #F7DE86",
"O. c #F8DD81",
"+. c #F8DE82",
"@. c #F8DC84",
"#. c #F8DE85",
"$. c #F8DE8B",
"%. c #F8DF8B",
"&. c #F8DF8C",
"*. c #F8DF8D",
"=. c #F5DD94",
"-. c #F6DF94",
";. c #F9E087",
":. c #F8E088",
">. c #F8E08A",
",. c #F8E08C",
"<. c #F8E08D",
"1. c #F8E08E",
"2. c #F8E18E",
"3. c #F9E18E",
"4. c #F9E28E",
"5. c #F9E28F",
"6. c #F8E295",
"7. c #F9E197",
"8. c #F5E09F",
"9. c #FBE899",
"0. c #FBE8A3",
"q. c #FEEAA1",
"w. c #F9E6A9",
"e. c #F9E7AF",
"r. c #FBEAAE",
"t. c #FAEBB0",
"y. c #FBEABE",
"u. c #FDF0B5",
"i. c #FFF4B8",
"p. c #FFF7BB",
"a. c #FDF0BF",
"s. c #FFF8B9",
"d. c #FFF8BC",
"f. c #FFF9BC",
"g. c #C4C6C8",
"h. c #CBCDCF",
"j. c #DDD9CB",
"k. c #D3D4D6",
"l. c #D4D6D8",
"z. c #D4D7DE",
"x. c #FDEDC1",
"c. c #FCEFC2",
"v. c #FEEFC3",
"b. c #FCF0C2",
"n. c #FCF0C3",
"m. c #FDF0C4",
"M. c #FEF1C4",
"N. c #FFF4C5",
"B. c #FFF6C6",
"V. c #FFF8C6",
"C. c #FCF1CA",
"Z. c #FDF1CA",
"A. c #FDF1CB",
"S. c #FDF2CA",
"D. c #FDF2CB",
"F. c #FDF2CD",
"G. c #FDF3CD",
"H. c #FDF2CE",
"J. c #FEF3CE",
"K. c #FEF4CC",
"L. c #FEF4CE",
"P. c #FFF4CE",
"I. c #FEF4CF",
"U. c #FFF4CF",
"Y. c #FFF5CF",
"T. c #FDF3D1",
"R. c #FFF6D0",
"E. c #FDF4D2",
"W. c #FEF4D3",
"Q. c #FEF5D6",
"!. c #FFF6D6",
"~. c #FFF7DC",
"^. c #DBDDE1",
"/. c #DDE0E6",
"(. c #DEE1E7",
"). c #E4E5E6",
"_. c #E4E6ED",
"`. c #E4E6EF",
"'. c #FFF8E0",
"]. c #FFFAE5",
"[. c #FEF9E6",
"{. c #FFFDE5",
"}. c #F3F1EA",
"|. c #FFF8E8",
" X c #FFFBE9",
".X c #FFFCED",
"XX c #E8EBF0",
"oX c #FFFEF3",
"OX c #FFFFF3",
"+X c #FFFDF4",
"@X c #F4F6F9",
"#X c #F5F7FA",
"$X c #F8F8F9",
"%X c #FBFCFF",
"&X c #FEFEFC",
"*X c #FCFDFF",
"=X c #FCFEFF",
"-X c gray100",
";X c None",
/* pixels */
";X;X;X;X;X;X;X;X;X;X;X;X;X;X;X;X",
"K n.H.C.C.C.C.C.C.C.H.C.C.H.c.! ",
">.[.J u t y y D F G J Q _  .OX%.",
"3.t.X M 8.] e   . o @ s x m V.3.",
"3.u.i L.H.-.-.# # % : d C Z B.3.",
"%.i.v 9.r.[ r.r % : 3 l V c B.<.",
"&.p.p | a.@.w.L < 4 w l B h n.3.",
"&.d.b / [.~.7.I 2 7 w l N 3 c.3.",
"<.d.n A L.+X) 7 7 7 7 7 w < c.3.",
"&.s.a f z '.' + < < - = = O y.3.",
"#.{.} ` ^ L.%.I R R R T Y ( |.>.",
"..-X-XR.|..X-X-X-X@X#X%X-X-X-X@.",
"..-XOX:.0.0.j.^.g.h.).l.k.$X-X..",
"..-X-Xn.Q.Q.}._.z./.XX_./.=X-X#.",
"P c.H.R.R.R.L.R.L.L.L.L.L.L.c.! ",
";X;X6.6.6.6.7.6.6.6.6.6.6.7.;X;X"
};
